<?xml version="1.0" encoding="UTF-8"?>
<svg version="1.1" xmlns="http://www.w3.org/2000/svg" width="500" height="500">
<path d="M0 0 C165 0 330 0 500 0 C500 164.67 500 329.34 500 499 C335 499 170 499 0 499 C0 334.33 0 169.66 0 0 Z " fill="#70AF94" transform="translate(0,1)"/>
<path d="M0 0 C0.54140625 0.28617188 1.0828125 0.57234375 1.640625 0.8671875 C4.29319347 2.1407717 6.97931482 3.13546958 9.75 4.125 C10.73484375 4.47820312 11.7196875 4.83140625 12.734375 5.1953125 C13.48203125 5.46085938 14.2296875 5.72640625 15 6 C15 6.66 15 7.32 15 8 C16.175625 8.268125 17.35125 8.53625 18.5625 8.8125 C22.60642688 9.81447119 26.2167107 11.2659924 30 13 C30 13.66 30 14.32 30 15 C31.7015625 15.37125 31.7015625 15.37125 33.4375 15.75 C39.65303047 17.30937337 45.30066637 19.94870887 50.8125 23.1875 C53.74545295 25.06576264 53.74545295 25.06576264 56.3125 25.5 C58 26 58 26 59.3125 27.75 C60.20694972 30.67728999 59.96950811 32.09147568 59 35 C57.1875 38.3125 57.1875 38.3125 55 41 C53.68 41 52.36 41 51 41 C51.00999275 42.23028679 51.00999275 42.23028679 51.02018738 43.48542786 C51.08026878 51.21045133 51.12595913 58.93536171 51.15543652 66.66055775 C51.17110056 70.63228627 51.19235199 74.60382193 51.22631836 78.57543945 C51.25888596 82.40743089 51.27684745 86.23923668 51.28463173 90.07135582 C51.29017996 91.53422659 51.30101425 92.99708707 51.31719017 94.45987892 C51.33893079 96.50708696 51.34196847 98.5535254 51.34057617 100.60083008 C51.35056892 102.34956169 51.35056892 102.34956169 51.36076355 104.13362122 C51 107 51 107 49.88616943 108.87590027 C47.06925388 110.55469644 44.74450173 110.37912756 41.48071289 110.38476562 C40.82345718 110.3901384 40.16620148 110.39551117 39.48902893 110.40104675 C38.06329856 110.41082299 36.63750869 110.41376934 35.21174812 110.41069031 C32.95438861 110.40621377 30.69781374 110.42020671 28.4405365 110.43908691 C23.6478705 110.47588114 18.85528646 110.48958012 14.0625 110.5 C8.51183889 110.51207722 2.96155948 110.53361523 -2.58893013 110.58000183 C-4.8114684 110.59357669 -7.03352475 110.58940035 -9.25608826 110.58459473 C-10.6211712 110.59393618 -11.98624882 110.60410521 -13.35131836 110.61523438 C-15.13644081 110.61831604 -15.13644081 110.61831604 -16.95762634 110.62145996 C-20.27877237 111.03468558 -21.51668432 111.85589561 -24 114 C-24.66 114 -25.32 114 -26 114 C-26 114.66 -26 115.32 -26 116 C-32.23054385 118.07684795 -39.02407548 117.45439757 -45 115 C-48.95305484 112.27102407 -52.18596002 109.49240663 -54.5 105.25 C-56.36839215 93.10545105 -56.36839215 93.10545105 -53.00927734 87.93701172 C-50.37161051 83.43392286 -50.39775134 79.24798465 -50.390625 74.12890625 C-50.37408875 73.206577 -50.35755249 72.28424774 -50.34051514 71.33396912 C-50.29222553 68.41007705 -50.27070659 65.48670437 -50.25 62.5625 C-50.22182439 60.57093768 -50.19189474 58.57939935 -50.16015625 56.58789062 C-50.08647168 51.72530321 -50.03678086 46.8630009 -50 42 C-50.61359375 41.89042969 -51.2271875 41.78085938 -51.859375 41.66796875 C-55.38715543 40.56714675 -56.33047798 38.16016669 -58 35 C-58.5926079 31.29620064 -58.53954638 29.767816 -56.375 26.6875 C-53.56041967 24.68766661 -51.40680413 24.30970947 -48 24 C-48 23.34 -48 22.68 -48 22 C-45.5433053 20.99580363 -43.08481647 19.99649499 -40.625 19 C-39.92632812 18.71382812 -39.22765625 18.42765625 -38.5078125 18.1328125 C-33.2265625 16 -33.2265625 16 -31 16 C-31 15.34 -31 14.68 -31 14 C-29.54293274 13.49632243 -28.08429904 12.99717444 -26.625 12.5 C-25.81289062 12.2215625 -25.00078125 11.943125 -24.1640625 11.65625 C-22 11 -22 11 -20 11 C-20 10.34 -20 9.68 -20 9 C-19.42967041 8.76289307 -18.85934082 8.52578613 -18.27172852 8.28149414 C-15.70091618 7.21104366 -13.1316958 6.13682419 -10.5625 5.0625 C-9.66466797 4.68931641 -8.76683594 4.31613281 -7.84179688 3.93164062 C-6.98779297 3.57392578 -6.13378906 3.21621094 -5.25390625 2.84765625 C-4.46314697 2.51773682 -3.6723877 2.18781738 -2.85766602 1.84790039 C-1.02623203 1.14278509 -1.02623203 1.14278509 0 0 Z " fill="#0E1512" transform="translate(248,131)"/>
<path d="M0 0 C1.53987986 0.87277437 3.06721103 1.76801481 4.58203125 2.68359375 C6.69147371 3.89315316 8.67828688 4.74551544 10.96875 5.54296875 C13.62886987 6.4753276 15.97814805 7.54740189 18.40625 8.98046875 C21.79504236 10.95212976 25.24061564 12.46795312 28.84375 13.98046875 C31.5971135 15.16024349 34.34567387 16.35093946 37.09375 17.54296875 C38.15335938 17.99833008 38.15335938 17.99833008 39.234375 18.46289062 C42.29621474 19.7937471 45.05824601 21.12346609 47.84375 22.98046875 C47.51375 25.29046875 47.18375 27.60046875 46.84375 29.98046875 C42.64905429 29.38122651 38.83375166 28.40546934 34.84375 26.98046875 C34.84375 26.32046875 34.84375 25.66046875 34.84375 24.98046875 C32.53375 24.65046875 30.22375 24.32046875 27.84375 23.98046875 C29.95447731 29.30919643 29.95447731 29.30919643 39.84375 31.98046875 C39.84375 54.09046875 39.84375 76.20046875 39.84375 98.98046875 C37.20375 98.98046875 34.56375 98.98046875 31.84375 98.98046875 C31.83566315 98.33345001 31.82757629 97.68643127 31.81924438 97.01980591 C31.73339128 90.30417747 31.63389685 83.58885079 31.52636719 76.87353516 C31.48801127 74.36512304 31.45317025 71.85665467 31.421875 69.34814453 C31.37636791 65.74881846 31.31835 62.14988192 31.2578125 58.55078125 C31.24626129 57.4236673 31.23471008 56.29655334 31.22280884 55.13528442 C31.20293915 54.09435638 31.18306946 53.05342834 31.16259766 51.98095703 C31.14927399 51.06162384 31.13595032 50.14229065 31.1222229 49.19509888 C31.04798949 46.77579923 31.04798949 46.77579923 28.84375 44.98046875 C25.57174361 44.66780019 25.57174361 44.66780019 21.71875 44.71484375 C20.66469971 44.71197357 20.66469971 44.71197357 19.58935547 44.70904541 C18.10318646 44.707684 16.61700555 44.71137743 15.13085938 44.71972656 C12.85259354 44.73042721 10.57511623 44.71983036 8.296875 44.70703125 C6.85416492 44.70835285 5.41145534 44.71091526 3.96875 44.71484375 C2.65132813 44.71709961 1.33390625 44.71935547 -0.0234375 44.72167969 C-3.2555913 44.64881436 -3.2555913 44.64881436 -5.15625 46.98046875 C-5.48726534 49.28385677 -5.48726534 49.28385677 -5.47509766 51.98095703 C-5.49496735 53.02188507 -5.51483704 54.06281311 -5.53530884 55.13528442 C-5.55263565 56.82595535 -5.55263565 56.82595535 -5.5703125 58.55078125 C-5.58967865 59.70214569 -5.6090448 60.85351013 -5.6289978 62.0397644 C-5.68892372 65.72825644 -5.73523126 69.41677947 -5.78125 73.10546875 C-5.81941777 75.60157634 -5.85846878 78.0976706 -5.8984375 80.59375 C-5.99463604 86.72254831 -6.07861902 92.85140826 -6.15625 98.98046875 C-12.09625 98.98046875 -18.03625 98.98046875 -24.15625 98.98046875 C-23.96875 91.79296875 -23.96875 91.79296875 -23.88598633 89.55786133 C-23.82989686 85.09181302 -24.60669728 82.59608129 -27.15625 78.98046875 C-27.48625 77.99046875 -27.81625 77.00046875 -28.15625 75.98046875 C-27.32480469 75.93148437 -26.49335938 75.8825 -25.63671875 75.83203125 C-24.55003906 75.75726563 -23.46335938 75.6825 -22.34375 75.60546875 C-21.26480469 75.53585938 -20.18585938 75.46625 -19.07421875 75.39453125 C-15.96998814 75.16851142 -15.96998814 75.16851142 -13.15625 72.98046875 C-12.70622684 70.43132517 -12.70622684 70.43132517 -12.79296875 67.45703125 C-12.79361328 66.35359375 -12.79425781 65.25015625 -12.79492188 64.11328125 C-12.81103516 62.95570313 -12.82714844 61.798125 -12.84375 60.60546875 C-12.84052734 59.455625 -12.83730469 58.30578125 -12.83398438 57.12109375 C-12.72327314 50.25225186 -12.72327314 50.25225186 -15.15625 43.98046875 C-19.61534298 44.06100116 -24.0730334 44.17387325 -28.53125 44.29296875 C-29.80226562 44.31552734 -31.07328125 44.33808594 -32.3828125 44.36132812 C-34.20039063 44.41450195 -34.20039063 44.41450195 -36.0546875 44.46875 C-37.73570557 44.50802612 -37.73570557 44.50802612 -39.45068359 44.5480957 C-40.78993896 44.76212036 -40.78993896 44.76212036 -42.15625 44.98046875 C-44.34789944 48.26794291 -44.44304386 49.465417 -44.5703125 53.3046875 C-44.60898438 54.33271484 -44.64765625 55.36074219 -44.6875 56.41992188 C-44.7184375 57.49177734 -44.749375 58.56363281 -44.78125 59.66796875 C-44.81992188 60.75142578 -44.85859375 61.83488281 -44.8984375 62.95117188 C-44.99275509 65.62743342 -45.07835005 68.30368718 -45.15625 70.98046875 C-49.11625 71.97046875 -49.11625 71.97046875 -53.15625 72.98046875 C-53.15625 59.45046875 -53.15625 45.92046875 -53.15625 31.98046875 C-40.15625 26.98046875 -40.15625 26.98046875 -38.15625 26.98046875 C-38.15625 26.32046875 -38.15625 25.66046875 -38.15625 24.98046875 C-37.15464844 24.59375 -36.15304688 24.20703125 -35.12109375 23.80859375 C-33.7785345 23.28283628 -32.43609284 22.75677848 -31.09375 22.23046875 C-30.43697266 21.9778125 -29.78019531 21.72515625 -29.10351562 21.46484375 C-24.51944085 19.65831182 -20.40598082 17.47221739 -16.15625 14.98046875 C-11.25024255 12.5921312 -7.55652336 11.29288333 -2.15625 12.98046875 C-0.09322207 13.9397366 1.91731886 14.95237784 3.9140625 16.04296875 C5.87734691 16.99679114 7.71455096 17.52623962 9.84375 17.98046875 C9.84375 18.64046875 9.84375 19.30046875 9.84375 19.98046875 C11.16375 19.98046875 12.48375 19.98046875 13.84375 19.98046875 C13.84375 18.66046875 13.84375 17.34046875 13.84375 15.98046875 C13.204375 15.73296875 12.565 15.48546875 11.90625 15.23046875 C9.43445124 14.2215713 7.02059089 13.15226029 4.59375 12.04296875 C0.10597768 10.02912806 -4.46387087 8.44475727 -9.15625 6.98046875 C-9.15625 7.64046875 -9.15625 8.30046875 -9.15625 8.98046875 C-10.75774886 9.65351893 -12.36256029 10.31869102 -13.96875 10.98046875 C-14.86207031 11.35171875 -15.75539062 11.72296875 -16.67578125 12.10546875 C-19.15625 12.98046875 -19.15625 12.98046875 -22.15625 12.98046875 C-22.15625 13.64046875 -22.15625 14.30046875 -22.15625 14.98046875 C-23.23003906 15.439375 -24.30382812 15.89828125 -25.41015625 16.37109375 C-26.84644704 16.99067017 -28.28263974 17.61047401 -29.71875 18.23046875 C-30.42322266 18.53082031 -31.12769531 18.83117187 -31.85351562 19.140625 C-35.31268077 20.6390652 -38.63998613 22.20270281 -41.89453125 24.109375 C-47.26264189 27.18880613 -53.04550706 28.99486505 -59.15625 29.98046875 C-61.15625 26.98046875 -61.15625 26.98046875 -61.08984375 24.98046875 C-59.74923626 22.10853974 -58.01117646 21.42172112 -55.21875 19.98046875 C-54.22746094 19.46871094 -53.23617187 18.95695312 -52.21484375 18.4296875 C-48.62905826 16.73067547 -44.99563038 15.25549921 -41.2890625 13.84375 C-39.03466914 12.99545844 -39.03466914 12.99545844 -36.65625 11.48046875 C-33.40975266 9.53257034 -29.99585623 8.28299451 -26.4609375 6.9453125 C-23.9484195 5.97939656 -23.9484195 5.97939656 -21.15625 3.98046875 C-19.83625 3.98046875 -18.51625 3.98046875 -17.15625 3.98046875 C-17.15625 3.32046875 -17.15625 2.66046875 -17.15625 1.98046875 C-5.86569 -2.77345125 -5.86569 -2.77345125 0 0 Z " fill="#6CA98F" transform="translate(255.15625,138.01953125)"/>
<path d="M0 0 C1.20970459 0.00523682 2.41940918 0.01047363 3.66577148 0.01586914 C4.84083252 0.0183667 6.01589355 0.02086426 7.2265625 0.0234375 C8.7314624 0.0325415 10.2363623 0.04164551 11.78686523 0.05102539 C16.55124023 0.07165039 21.31561523 0.09227539 26.22436523 0.11352539 C26.22436523 16.61352539 26.22436523 33.11352539 26.22436523 50.11352539 C16.32436523 50.11352539 6.42436523 50.11352539 -3.77563477 50.11352539 C-3.79853815 43.15344237 -3.81846695 36.19348906 -3.83056641 29.23339844 C-3.83560818 26.86360227 -3.84244142 24.49380924 -3.85107422 22.12402344 C-3.86314666 18.725985 -3.86886447 15.32798754 -3.87329102 11.92993164 C-3.8784523 10.86327774 -3.88361359 9.79662384 -3.88893127 8.69764709 C-3.88900681 7.71670578 -3.88908234 6.73576447 -3.88916016 5.72509766 C-3.89138077 4.85683853 -3.89360138 3.98857941 -3.89588928 3.0940094 C-3.70465125 -0.05550946 -3.19043172 0.13049087 0 0 Z " fill="#6FAD92" transform="translate(256.775634765625,185.886474609375)"/>
<path d="M0 0 C4.07300574 2.15177662 9.08933244 5.17569992 10.578125 9.79296875 C11.55123692 14.88378575 12.33421951 20.43774453 9.87109375 25.16796875 C6.33245274 29.50118711 2.47276873 32.30803305 -3.09765625 33.41796875 C-6.76954721 33.75177702 -9.11722001 33.55230338 -12.28515625 31.5703125 C-15.64951323 28.72495796 -18.35684098 26.15241663 -20 22 C-20.35421309 16.59825045 -20.15238267 12.05342018 -18 7 C-12.53956865 1.15799634 -7.99954493 -0.98476691 0 0 Z " fill="#69A38A" transform="translate(217,212)"/>
<path d="M0 0 C2.69937823 1.26498059 4.87916161 2.87916161 7 5 C7.4640884 10.33701657 7.4640884 10.33701657 5.6875 12.875 C4 14 4 14 1 14 C1.226875 12.906875 1.45375 11.81375 1.6875 10.6875 C2.31357052 7.18599607 2.31357052 7.18599607 1 5.0625 C-2.19440494 3.36547237 -4.44819276 3.51009555 -8 4 C-10.63016161 6.1727422 -12.47336894 7.94673788 -14 11 C-14.97466192 20.27063326 -14.97466192 20.27063326 -12.125 28.8125 C-9.56894626 31.44373179 -8.77721341 31.94931217 -5.125 32.1875 C-2.10898068 32.00653884 -0.53346154 31.55905325 2 30 C2.2502157 27.08365871 2.2502157 27.08365871 2 24 C1.01 23.34 0.02 22.68 -1 22 C-1 21.34 -1 20.68 -1 20 C2.63 20 6.26 20 10 20 C9.67 21.32 9.34 22.64 9 24 C8.8081881 27.51299948 8.65676967 31.02015529 8.5703125 34.53710938 C8.31842938 40.45111518 7.44743951 45.51176983 3.125 49.90625 C-0.77562538 51.91392483 -4.74579043 51.75614688 -9 51 C-11.94093343 48.54922214 -12.81245328 47.12528032 -13.4375 43.375 C-13 41 -13 41 -11.75 39.125 C-10 38 -10 38 -7.8125 38.3125 C-7.214375 38.539375 -6.61625 38.76625 -6 39 C-6.33 39.66 -6.66 40.32 -7 41 C-7.039992 42.99960012 -7.04346799 45.00047242 -7 47 C-3.35597624 48.11540455 -3.35597624 48.11540455 0.125 46.875 C2.61845475 44.38154525 2.58643355 42.78828705 2.75 39.3125 C2.80671875 38.31863281 2.8634375 37.32476562 2.921875 36.30078125 C2.94765625 35.54152344 2.9734375 34.78226562 3 34 C2.01 34.66 1.02 35.32 0 36 C-4.50125635 36.74543099 -9.02688101 36.99720582 -13.171875 34.90234375 C-17.92000438 31.0977529 -20.51206471 26.72660577 -21.3125 20.61328125 C-21.60480252 14.64848291 -20.74827337 9.76189096 -17 5 C-12.04197864 0.40012014 -6.68006264 -1.38038195 0 0 Z " fill="#090E0C" transform="translate(105,272)"/>
<path d="M0 0 C1.66617756 0.33576962 3.33255424 0.67058607 5 1 C5 1.66 5 2.32 5 3 C-2.88151427 2.50848235 -10.62724564 1.66388457 -18.43457031 0.48852539 C-64.08275907 -6.21378804 -112.04894239 -1.63207506 -156 12 C-157.75819994 12.54203827 -159.51732297 13.08109109 -161.27734375 13.6171875 C-162.45478149 13.97852783 -162.45478149 13.97852783 -163.65600586 14.34716797 C-166.08790155 15.02448169 -168.51957851 15.53473214 -171 16 C-171 15.01 -171 14.02 -171 13 C-117.66542312 -7.80048498 -55.82650235 -11.90327627 0 0 Z " fill="#080C0A" transform="translate(334,339)"/>
<path d="M0 0 C0 7.26 0 14.52 0 22 C1.32 21.67 2.64 21.34 4 21 C3.34 22.32 2.68 23.64 2 25 C-0.875 25.1875 -0.875 25.1875 -4 25 C-4.66 24.01 -5.32 23.02 -6 22 C-6.495 22.495 -6.99 22.99 -7.5 23.5 C-11.01068057 25.60640834 -14.00989779 25.95664336 -18 25 C-21.22976168 22.09321449 -21.83718429 20.38674066 -22.33984375 16.10546875 C-22.51274641 10.49650654 -22.53220249 6.58336122 -19 2 C-13.25692131 -2.71716971 -6.9636277 -0.71588696 0 0 Z " fill="#090E0C" transform="translate(411,285)"/>
<path d="M0 0 C0 7.26 0 14.52 0 22 C1.32 21.67 2.64 21.34 4 21 C3.34 22.32 2.68 23.64 2 25 C-0.875 25.1875 -0.875 25.1875 -4 25 C-4.66 24.01 -5.32 23.02 -6 22 C-6.495 22.495 -6.99 22.99 -7.5 23.5 C-11.01068057 25.60640834 -14.00989779 25.95664336 -18 25 C-21.22976168 22.09321449 -21.83718429 20.38674066 -22.33984375 16.10546875 C-22.51274641 10.49650654 -22.53220249 6.58336122 -19 2 C-13.25692131 -2.71716971 -6.9636277 -0.71588696 0 0 Z " fill="#090E0C" transform="translate(173,285)"/>
<path d="M0 0 C0 6.93 0 13.86 0 21 C1.32 21 2.64 21 4 21 C3.34 22.32 2.68 23.64 2 25 C-0.875 25.1875 -0.875 25.1875 -4 25 C-4.66 24.01 -5.32 23.02 -6 22 C-6.495 22.495 -6.99 22.99 -7.5 23.5 C-10.97603345 25.58562007 -14.0404264 25.89435954 -18 25 C-21.5299382 21.56057303 -23.15323933 18.68252377 -23.3125 13.8125 C-23.24726897 8.74894097 -22.00732242 6.06394922 -19 2 C-13.10257546 -2.6231596 -7.0795701 -0.72780627 0 0 Z " fill="#0A100D" transform="translate(303,285)"/>
<path d="M0 0 C0.33 5.28 0.66 10.56 1 16 C2.65 14.68 4.3 13.36 6 12 C9.125 11.5625 9.125 11.5625 12 12 C14.08926309 13.58405086 14.89551563 14.49622133 15.43237305 17.0847168 C15.45855713 17.86500244 15.48474121 18.64528809 15.51171875 19.44921875 C15.56489258 20.72055664 15.56489258 20.72055664 15.61914062 22.01757812 C15.64169922 22.89865234 15.66425781 23.77972656 15.6875 24.6875 C15.73874023 26.02651367 15.73874023 26.02651367 15.79101562 27.39257812 C15.87345648 29.59492671 15.94261551 31.79687938 16 34 C17.32 34 18.64 34 20 34 C19.34 35.32 18.68 36.64 18 38 C16.00045254 38.04254356 13.99958364 38.04080783 12 38 C10.45049732 36.45049732 10.78344807 34.90009406 10.68359375 32.74609375 C10.64169922 31.89208984 10.59980469 31.03808594 10.55664062 30.15820312 C10.51732422 29.26037109 10.47800781 28.36253906 10.4375 27.4375 C10.39431641 26.53580078 10.35113281 25.63410156 10.30664062 24.70507812 C10.20021858 22.47021515 10.09820012 20.23523692 10 18 C6.52852158 17.25042843 6.52852158 17.25042843 3 17 C0.79050168 21.41029783 0.7629352 25.48940324 0.875 30.3125 C0.88853516 31.42334961 0.88853516 31.42334961 0.90234375 32.55664062 C0.92575787 34.37123467 0.96162385 36.18566071 1 38 C-1.97 38 -4.94 38 -8 38 C-8 37.34 -8 36.68 -8 36 C-7.01 35.505 -7.01 35.505 -6 35 C-5.67 24.44 -5.34 13.88 -5 3 C-5.99 3 -6.98 3 -8 3 C-8 2.34 -8 1.68 -8 1 C-5 -1 -5 -1 0 0 Z " fill="#050706" transform="translate(365,272)"/>
<path d="M0 0 C0.33 5.28 0.66 10.56 1 16 C2.65 14.68 4.3 13.36 6 12 C9.125 11.5625 9.125 11.5625 12 12 C14.08926309 13.58405086 14.89551563 14.49622133 15.43237305 17.0847168 C15.45855713 17.86500244 15.48474121 18.64528809 15.51171875 19.44921875 C15.56489258 20.72055664 15.56489258 20.72055664 15.61914062 22.01757812 C15.64169922 22.89865234 15.66425781 23.77972656 15.6875 24.6875 C15.73874023 26.02651367 15.73874023 26.02651367 15.79101562 27.39257812 C15.87345648 29.59492671 15.94261551 31.79687938 16 34 C17.32 34 18.64 34 20 34 C19.34 35.32 18.68 36.64 18 38 C16.00045254 38.04254356 13.99958364 38.04080783 12 38 C10.45049732 36.45049732 10.78344807 34.90009406 10.68359375 32.74609375 C10.64169922 31.89208984 10.59980469 31.03808594 10.55664062 30.15820312 C10.51732422 29.26037109 10.47800781 28.36253906 10.4375 27.4375 C10.39431641 26.53580078 10.35113281 25.63410156 10.30664062 24.70507812 C10.20021858 22.47021515 10.09820012 20.23523692 10 18 C6.52852158 17.25042843 6.52852158 17.25042843 3 17 C0.79050168 21.41029783 0.7629352 25.48940324 0.875 30.3125 C0.88853516 31.42334961 0.88853516 31.42334961 0.90234375 32.55664062 C0.92575787 34.37123467 0.96162385 36.18566071 1 38 C-1.97 38 -4.94 38 -8 38 C-8 37.34 -8 36.68 -8 36 C-7.01 35.505 -7.01 35.505 -6 35 C-5.67 24.44 -5.34 13.88 -5 3 C-5.99 3 -6.98 3 -8 3 C-8 2.34 -8 1.68 -8 1 C-5 -1 -5 -1 0 0 Z " fill="#050706" transform="translate(127,272)"/>
<path d="M0 0 C0.33 6.27 0.66 12.54 1 19 C2.32 17.35 3.64 15.7 5 14 C7.82883747 12.58558126 9.87376745 12.68099668 13 13 C15.81042484 15.45745679 16.23035584 17.76155826 16.51171875 21.328125 C16.58446328 22.96818349 16.64262733 24.6089424 16.6875 26.25 C16.73874023 27.51070313 16.73874023 27.51070313 16.79101562 28.796875 C16.87323568 30.86412204 16.93830157 32.93203874 17 35 C18.32 35 19.64 35 21 35 C20.34 36.32 19.68 37.64 19 39 C17.00045254 39.04254356 14.99958364 39.04080783 13 39 C11.45429669 37.45429669 11.80175898 35.9306528 11.71875 33.78125 C11.68136719 32.93175781 11.64398438 32.08226562 11.60546875 31.20703125 C11.53515625 29.40234375 11.46484375 27.59765625 11.39453125 25.79296875 C11.35714844 24.94347656 11.31976563 24.09398437 11.28125 23.21875 C11.25095703 22.43435547 11.22066406 21.64996094 11.18945312 20.84179688 C11.19408532 18.98373804 11.19408532 18.98373804 10 18 C7.58462162 17.58282721 7.58462162 17.58282721 5 18 C1.98877007 21.01122993 1.11714034 24.04306721 0.8671875 28.21875 C0.86976563 28.9715625 0.87234375 29.724375 0.875 30.5 C0.87242187 31.2528125 0.86984375 32.005625 0.8671875 32.78125 C0.95121258 35.32656368 0.95121258 35.32656368 2 39 C-0.97 39 -3.94 39 -7 39 C-7 38.34 -7 37.68 -7 37 C-6.01 36.505 -6.01 36.505 -5 36 C-4.67 25.44 -4.34 14.88 -4 4 C-4.99 4 -5.98 4 -7 4 C-6.67 3.01 -6.34 2.02 -6 1 C-4 0 -4 0 0 0 Z " fill="#030504" transform="translate(256,271)"/>
<path d="M0 0 C1.66617756 0.33576962 3.33255424 0.67058607 5 1 C5 1.66 5 2.32 5 3 C-1.56482215 2.58753623 -8.06845743 2.04889808 -14.57421875 1.0625 C-36.70042151 -2.27600905 -58.65115387 -2.81182651 -81 -3 C-80.67 -3.66 -80.34 -4.32 -80 -5 C-56.1986653 -11.72594133 -23.5661582 -5.02475491 0 0 Z " fill="#0C120F" transform="translate(334,339)"/>
<path d="M0 0 C2.9375 1.625 2.9375 1.625 5 4 C5.3125 7.25 5.3125 7.25 5 10 C3.35 10.66 1.7 11.32 0 12 C0.020625 10.865625 0.04125 9.73125 0.0625 8.5625 C0.41577477 5.18424326 0.41577477 5.18424326 -1 4 C-3.41537838 3.58282721 -3.41537838 3.58282721 -6 4 C-8.79661113 6.90980729 -9.41148774 9.01067388 -9.375 13 C-9.38273437 13.845625 -9.39046875 14.69125 -9.3984375 15.5625 C-8.91754929 18.50440435 -8.09042646 19.89026244 -6 22 C-2.1345378 22.35140565 1.29567073 22.18538537 5 21 C3.25 24.875 3.25 24.875 1 26 C-3.539219 26.54399285 -6.9544269 26.62289461 -10.9375 24.25 C-14.98954841 19.82958356 -15.38762826 16.25545122 -15.25 10.40625 C-14.91802177 7.21095956 -14.12105635 5.41361584 -12 3 C-8.07857948 -0.15892208 -4.96726332 -0.62090792 0 0 Z " fill="#050807" transform="translate(347,284)"/>
<path d="M0 0 C3.63 0 7.26 0 11 0 C10.67 1.32 10.34 2.64 10 4 C9.85225139 6.24240577 9.75255632 8.48816543 9.68359375 10.734375 C9.64169922 12.02988281 9.59980469 13.32539063 9.55664062 14.66015625 C9.51683329 16.02343476 9.47712094 17.38671606 9.4375 18.75 C9.39427726 20.12891875 9.35066179 21.50782526 9.30664062 22.88671875 C9.20056042 26.2577119 9.0985015 29.62877826 9 33 C9.99 33.33 10.98 33.66 12 34 C12 34.66 12 35.32 12 36 C8.04 36 4.08 36 0 36 C0 35.34 0 34.68 0 34 C0.99 33.34 1.98 32.68 3 32 C3.46785142 29.04326952 3.46785142 29.04326952 3.3984375 25.56640625 C3.40230469 24.27798828 3.40617188 22.98957031 3.41015625 21.66210938 C3.40387207 20.98946045 3.39758789 20.31681152 3.39111328 19.6237793 C3.37508502 17.57337565 3.39094123 15.52495084 3.41015625 13.47460938 C3.40628906 12.18490234 3.40242187 10.89519531 3.3984375 9.56640625 C3.39505371 8.37990479 3.39166992 7.19340332 3.38818359 5.97094727 C3.26149376 2.65195843 3.26149376 2.65195843 0 0 Z " fill="#050807" transform="translate(216,274)"/>
<path d="M0 0 C0.66 0.33 1.32 0.66 2 1 C2.0809723 3.43816585 2.14046972 5.87364384 2.1875 8.3125 C2.22520508 9.34793945 2.22520508 9.34793945 2.26367188 10.40429688 C2.33734651 15.48784666 2.33734651 15.48784666 0.7109375 17.95703125 C-2.17970279 19.7191339 -4.72645818 19.35711365 -8 19 C-10.27947698 15.58078453 -10.32513105 14.09689823 -10.375 10.0625 C-10.40335937 9.02222656 -10.43171875 7.98195313 -10.4609375 6.91015625 C-9.48383639 0.74117043 -5.77765412 -0.62800588 0 0 Z " fill="#6DAA90" transform="translate(296,287)"/>
<path d="M0 0 C2.875 0.375 2.875 0.375 4.875 1.375 C4.9559723 3.81316585 5.01546972 6.24864384 5.0625 8.6875 C5.10020508 9.72293945 5.10020508 9.72293945 5.13867188 10.77929688 C5.21255356 15.87713339 5.21255356 15.87713339 3.55078125 18.328125 C0.88747181 19.99191738 -1.07217498 19.82020365 -4.125 19.375 C-6.89676833 16.50540455 -7.55641897 14.3840862 -7.5625 10.4375 C-7.44468925 6.9697663 -7.13749017 5.39901955 -5.5 2.25 C-3.125 0.375 -3.125 0.375 0 0 Z " fill="#6FAD93" transform="translate(401.125,286.625)"/>
<path d="M0 0 C2.875 0.375 2.875 0.375 4.875 1.375 C4.9559723 3.81316585 5.01546972 6.24864384 5.0625 8.6875 C5.10020508 9.72293945 5.10020508 9.72293945 5.13867188 10.77929688 C5.21255356 15.87713339 5.21255356 15.87713339 3.55078125 18.328125 C0.88747181 19.99191738 -1.07217498 19.82020365 -4.125 19.375 C-6.89676833 16.50540455 -7.55641897 14.3840862 -7.5625 10.4375 C-7.44468925 6.9697663 -7.13749017 5.39901955 -5.5 2.25 C-3.125 0.375 -3.125 0.375 0 0 Z " fill="#6FAD93" transform="translate(163.125,286.625)"/>
<path d="M0 0 C3.3 0 6.6 0 10 0 C8.700625 1.4540625 8.700625 1.4540625 7.375 2.9375 C3.84803156 7.03550142 0.90897683 11.45085539 -2 16 C-0.21873667 19.6344969 1.70197866 23.18884937 3.625 26.75 C3.94984375 27.35199219 4.2746875 27.95398438 4.609375 28.57421875 C5.40570585 30.04977297 6.20277839 31.52492686 7 33 C7.99 33 8.98 33 10 33 C9.67 33.99 9.34 34.98 9 36 C6.3125 36.375 6.3125 36.375 3 36 C-1.40425005 31.81059142 -4.42125061 26.48670084 -7 21 C-7 20.34 -7 19.68 -7 19 C-7.66 19 -8.32 19 -9 19 C-9 18.34 -9 17.68 -9 17 C-8.2575 16.278125 -7.515 15.55625 -6.75 14.8125 C-2.2208584 10.18042336 0 6.69809918 0 0 Z " fill="#060908" transform="translate(235,274)"/>
<path d="M0 0 C3.25696479 0.41755959 4.63443291 0.63443291 7 3 C6.67028521 6.29714793 6.3773161 7.6226839 4 10 C3.01 10 2.02 10 1 10 C1.33 8.02 1.66 6.04 2 4 C-0.97995319 4.68531589 -0.97995319 4.68531589 -2.1796875 6.515625 C-3.41264291 10.24971853 -3.20913432 13.84746215 -3.125 17.75 C-3.11146484 18.93916016 -3.11146484 18.93916016 -3.09765625 20.15234375 C-3.07417012 22.10169281 -3.03830137 24.05088575 -3 26 C-5.97 26 -8.94 26 -12 26 C-12 25.34 -12 24.68 -12 24 C-11.34 23.67 -10.68 23.34 -10 23 C-9.505 14.09 -9.505 14.09 -9 5 C-10.32 5 -11.64 5 -13 5 C-13 4.34 -13 3.68 -13 3 C-9.77208445 0.8480563 -8.71599191 0.79913557 -5 1 C-4.67 2.65 -4.34 4.3 -4 6 C-3.525625 5.195625 -3.05125 4.39125 -2.5625 3.5625 C-1 1 -1 1 0 0 Z " fill="#070B09" transform="translate(193,284)"/>
<path d="M0 0 C2.3125 0.8125 2.3125 0.8125 3.3125 1.8125 C3.5 4.75 3.5 4.75 3.3125 7.8125 C2.6525 8.4725 1.9925 9.1325 1.3125 9.8125 C0.3225 9.8125 -0.6675 9.8125 -1.6875 9.8125 C-1.3575 7.8325 -1.0275 5.8525 -0.6875 3.8125 C-3.41650491 4.81313513 -4.48282897 5.40458422 -5.80859375 8.046875 C-6.7442491 10.99107051 -6.92211925 13.29511429 -6.875 16.375 C-6.86855469 17.30441406 -6.86210937 18.23382813 -6.85546875 19.19140625 C-6.74972177 22.07360251 -6.74972177 22.07360251 -5.6875 25.8125 C-8.6575 25.8125 -11.6275 25.8125 -14.6875 25.8125 C-14.6875 25.1525 -14.6875 24.4925 -14.6875 23.8125 C-14.0275 23.4825 -13.3675 23.1525 -12.6875 22.8125 C-12.1925 13.9025 -12.1925 13.9025 -11.6875 4.8125 C-13.0075 4.8125 -14.3275 4.8125 -15.6875 4.8125 C-15.3575 3.8225 -15.0275 2.8325 -14.6875 1.8125 C-11.2225 1.3175 -11.2225 1.3175 -7.6875 0.8125 C-7.3575 1.8025 -7.0275 2.7925 -6.6875 3.8125 C-6.130625 3.131875 -5.57375 2.45125 -5 1.75 C-2.6875 -0.1875 -2.6875 -0.1875 0 0 Z " fill="#030504" transform="translate(325.6875,284.1875)"/>
<path d="M0 0 C0.99 0 1.98 0 3 0 C3 1.32 3 2.64 3 4 C4.32 4 5.64 4 7 4 C7 5.32 7 6.64 7 8 C6.01 8.495 6.01 8.495 5 9 C5.495 9.391875 5.99 9.78375 6.5 10.1875 C8 12 8 12 8.3125 14.5625 C8 17 8 17 6 19 C5.01 19 4.02 19 3 19 C3 20.65 3 22.3 3 24 C2.01 24 1.02 24 0 24 C-0.33 22.68 -0.66 21.36 -1 20 C-1.99 20 -2.98 20 -4 20 C-4 18.68 -4 17.36 -4 16 C-1.69 16 0.62 16 3 16 C3 15.34 3 14.68 3 14 C2.236875 14.061875 1.47375 14.12375 0.6875 14.1875 C-2 14 -2 14 -3.8125 12.8125 C-5.36678206 10.44017475 -5.22537188 8.77958655 -5 6 C-4.360625 5.7525 -3.72125 5.505 -3.0625 5.25 C-0.81258459 4.18437567 -0.81258459 4.18437567 -0.25 1.875 C-0.1675 1.25625 -0.085 0.6375 0 0 Z " fill="#0E1713" transform="translate(211,217)"/>
<path d="M0 0 C0.33 0 0.66 0 1 0 C1.33 5.28 1.66 10.56 2 16 C3.65 14.68 5.3 13.36 7 12 C10.125 11.5625 10.125 11.5625 13 12 C15.08926309 13.58405086 15.89551563 14.49622133 16.43237305 17.0847168 C16.45855713 17.86500244 16.48474121 18.64528809 16.51171875 19.44921875 C16.56489258 20.72055664 16.56489258 20.72055664 16.61914062 22.01757812 C16.64169922 22.89865234 16.66425781 23.77972656 16.6875 24.6875 C16.73874023 26.02651367 16.73874023 26.02651367 16.79101562 27.39257812 C16.87345648 29.59492671 16.94261551 31.79687938 17 34 C18.32 34 19.64 34 21 34 C20.34 35.32 19.68 36.64 19 38 C17.00045254 38.04254356 14.99958364 38.04080783 13 38 C11.45049732 36.45049732 11.78344807 34.90009406 11.68359375 32.74609375 C11.64169922 31.89208984 11.59980469 31.03808594 11.55664062 30.15820312 C11.49766602 28.81145508 11.49766602 28.81145508 11.4375 27.4375 C11.39431641 26.53580078 11.35113281 25.63410156 11.30664062 24.70507812 C11.20021858 22.47021515 11.09820012 20.23523692 11 18 C7.52852158 17.25042843 7.52852158 17.25042843 4 17 C3.67 17.66 3.34 18.32 3 19 C2.01 19 1.02 19 0 19 C0 12.73 0 6.46 0 0 Z " fill="#0A110E" transform="translate(364,272)"/>
<path d="M0 0 C0.33 0 0.66 0 1 0 C1.33 5.28 1.66 10.56 2 16 C3.65 14.68 5.3 13.36 7 12 C10.125 11.5625 10.125 11.5625 13 12 C15.08926309 13.58405086 15.89551563 14.49622133 16.43237305 17.0847168 C16.45855713 17.86500244 16.48474121 18.64528809 16.51171875 19.44921875 C16.56489258 20.72055664 16.56489258 20.72055664 16.61914062 22.01757812 C16.64169922 22.89865234 16.66425781 23.77972656 16.6875 24.6875 C16.73874023 26.02651367 16.73874023 26.02651367 16.79101562 27.39257812 C16.87345648 29.59492671 16.94261551 31.79687938 17 34 C18.32 34 19.64 34 21 34 C20.34 35.32 19.68 36.64 19 38 C17.00045254 38.04254356 14.99958364 38.04080783 13 38 C11.45049732 36.45049732 11.78344807 34.90009406 11.68359375 32.74609375 C11.64169922 31.89208984 11.59980469 31.03808594 11.55664062 30.15820312 C11.49766602 28.81145508 11.49766602 28.81145508 11.4375 27.4375 C11.39431641 26.53580078 11.35113281 25.63410156 11.30664062 24.70507812 C11.20021858 22.47021515 11.09820012 20.23523692 11 18 C7.52852158 17.25042843 7.52852158 17.25042843 4 17 C3.67 17.66 3.34 18.32 3 19 C2.01 19 1.02 19 0 19 C0 12.73 0 6.46 0 0 Z " fill="#0A110E" transform="translate(126,272)"/>
<path d="M0 0 C0 0.33 0 0.66 0 1 C2.31 1.33 4.62 1.66 7 2 C7 2.33 7 2.66 7 3 C5.52744751 3.12060791 5.52744751 3.12060791 4.02514648 3.24365234 C0.30656269 3.54924533 -3.41158692 3.85988115 -7.12963867 4.171875 C-8.72458033 4.30504022 -10.31962978 4.43692198 -11.91479492 4.56738281 C-22.3274024 5.42006878 -32.65822805 6.50602868 -43 8 C-43 7.34 -43 6.68 -43 6 C-43.99 5.67 -44.98 5.34 -46 5 C-41.91777895 4.34700799 -37.83404741 3.70396179 -33.75 3.0625 C-32.61046875 2.88009766 -31.4709375 2.69769531 -30.296875 2.50976562 C-20.21450308 0.93439501 -10.21393159 -0.19642176 0 0 Z " fill="#121D18" transform="translate(254,334)"/>
<path d="M0 0 C2.97 0 5.94 0 9 0 C9 6.93 9 13.86 9 21 C10.32 21 11.64 21 13 21 C12.34 22.32 11.68 23.64 11 25 C9.02 25 7.04 25 5 25 C4.87625 24.195625 4.7525 23.39125 4.625 22.5625 C4.41875 21.716875 4.2125 20.87125 4 20 C3.34 19.67 2.68 19.34 2 19 C2.33 18.67 2.66 18.34 3 18 C3.23653523 15.47403741 3.42173692 12.96892793 3.5625 10.4375 C3.60568359 9.72658203 3.64886719 9.01566406 3.69335938 8.28320312 C3.79971777 6.52238088 3.90038846 4.7612168 4 3 C2.68 2.67 1.36 2.34 0 2 C0 1.34 0 0.68 0 0 Z " fill="#030504" transform="translate(294,285)"/>
<path d="M0 0 C3.63 0 7.26 0 11 0 C11 3.63 11 7.26 11 11 C9.370625 10.855625 7.74125 10.71125 6.0625 10.5625 C4.68771484 10.44068359 4.68771484 10.44068359 3.28515625 10.31640625 C1 10 1 10 0 9 C-0.14193337 5.99668982 -0.04236378 3.00782866 0 0 Z " fill="#5E927C" transform="translate(214,200)"/>
<path d="M0 0 C3.63 0 7.26 0 11 0 C11.09765625 6.93359375 11.09765625 6.93359375 11 9 C10 10 10 10 7.71484375 10.09765625 C5.14322917 10.06510417 2.57161458 10.03255208 0 10 C0 6.7 0 3.4 0 0 Z " fill="#649B83" transform="translate(228,200)"/>
<path d="M0 0 C3.3 0 6.6 0 10 0 C10 2.97 10 5.94 10 9 C6.7 9 3.4 9 0 9 C0 6.03 0 3.06 0 0 Z " fill="#6BA78E" transform="translate(229,187)"/>
<path d="M0 0 C2.97 0 5.94 0 9 0 C9 2.97 9 5.94 9 9 C6.03 9 3.06 9 0 9 C0 6.03 0 3.06 0 0 Z " fill="#6EAC92" transform="translate(215,187)"/>
<path d="M0 0 C0.598125 0.226875 1.19625 0.45375 1.8125 0.6875 C1.4825 1.3475 1.1525 2.0075 0.8125 2.6875 C0.772508 4.68710012 0.76903201 6.68797242 0.8125 8.6875 C2.7925 9.3475 4.7725 10.0075 6.8125 10.6875 C6.8125 11.3475 6.8125 12.0075 6.8125 12.6875 C3.95383991 12.92572167 1.61430916 13.11525712 -1.1875 12.6875 C-3.98566435 10.2391062 -5.01439803 8.72611182 -5.625 5.0625 C-5.1875 2.6875 -5.1875 2.6875 -3.9375 0.8125 C-2.1875 -0.3125 -2.1875 -0.3125 0 0 Z " fill="#050806" transform="translate(97.1875,310.3125)"/>
<path d="M0 0 C0.33 0.66 0.66 1.32 1 2 C-1.72838435 2.81520635 -4.45764417 3.62724843 -7.1875 4.4375 C-8.34088867 4.78264648 -8.34088867 4.78264648 -9.51757812 5.13476562 C-13.32525141 6.26235986 -17.08151762 7.3168177 -21 8 C-21 7.01 -21 6.02 -21 5 C-18.25435036 3.96588523 -15.5045139 2.94748843 -12.75 1.9375 C-11.97269531 1.64294922 -11.19539062 1.34839844 -10.39453125 1.04492188 C-9.26337891 0.6340332 -9.26337891 0.6340332 -8.109375 0.21484375 C-7.41811523 -0.04176025 -6.72685547 -0.29836426 -6.01464844 -0.56274414 C-3.6380786 -1.0785508 -2.25737642 -0.8762747 0 0 Z " fill="#111B17" transform="translate(184,347)"/>
<path d="M0 0 C1.65 0 3.3 0 5 0 C5 0.66 5 1.32 5 2 C9.455 2.99 9.455 2.99 14 4 C14 4.99 14 5.98 14 7 C13.01 7.33 12.02 7.66 11 8 C10.34 7.67 9.68 7.34 9 7 C8.01 7.33 7.02 7.66 6 8 C5.01 7.67 4.02 7.34 3 7 C2.67 6.34 2.34 5.68 2 5 C1.34 5.66 0.68 6.32 0 7 C0 4.69 0 2.38 0 0 Z " fill="#4A7462" transform="translate(254,362)"/>
<path d="M0 0 C3.25696479 0.41755959 4.63443291 0.63443291 7 3 C6.67028521 6.29714793 6.3773161 7.6226839 4 10 C3.01 10 2.02 10 1 10 C1.33 8.02 1.66 6.04 2 4 C-1.39914975 5.13304992 -2.05254451 6.12518475 -4 9 C-4 5.28703828 -2.65223411 2.65223411 0 0 Z " fill="#0C1310" transform="translate(193,284)"/>
<path d="M0 0 C4.55555556 0.55555556 4.55555556 0.55555556 6 2 C6.1875 4.9375 6.1875 4.9375 6 8 C5.34 8.66 4.68 9.32 4 10 C3.01 10 2.02 10 1 10 C1.33 8.02 1.66 6.04 2 4 C-1.12197478 5.3089572 -1.12197478 5.3089572 -3 8 C-3.66 7.67 -4.32 7.34 -5 7 C-3.47793991 4.37098712 -2.15634036 2.15634036 0 0 Z " fill="#090F0C" transform="translate(323,284)"/>
<path d="M0 0 C0.33 1.32 0.66 2.64 1 4 C4.3 4 7.6 4 11 4 C10.67 5.32 10.34 6.64 10 8 C9.34 7.67 8.68 7.34 8 7 C7.01 8.98 6.02 10.96 5 13 C4.34 12.67 3.68 12.34 3 12 C3.33 10.68 3.66 9.36 4 8 C2.35 8 0.7 8 -1 8 C-1.625 5.6875 -1.625 5.6875 -2 3 C-1.34 2.01 -0.68 1.02 0 0 Z " fill="#335144" transform="translate(310,362)"/>
<path d="M0 0 C0.804375 0.4640625 0.804375 0.4640625 1.625 0.9375 C4.3984957 2.17827439 7.00042837 2.5909675 10 3 C9.67 4.32 9.34 5.64 9 7 C9.66 7 10.32 7 11 7 C10.67 7.66 10.34 8.32 10 9 C9.0925 8.835 8.185 8.67 7.25 8.5 C3.88912497 7.89862854 3.88912497 7.89862854 0 8 C0 5.36 0 2.72 0 0 Z " fill="#4E7A68" transform="translate(294,362)"/>
<path d="M0 0 C4.002247 -0.31390173 6.38328737 -0.34116018 9.9375 1.625 C12 4 12 4 12.3125 7.25 C12.1578125 8.61125 12.1578125 8.61125 12 10 C10.35 10.66 8.7 11.32 7 12 C7 9.69 7 7.38 7 5 C3.535 3.02 3.535 3.02 0 1 C0 0.67 0 0.34 0 0 Z " fill="#0A110E" transform="translate(340,284)"/>
<path d="M0 0 C1.3271261 3.9813783 1.06915913 7.85045227 1 12 C1.66 9.03 2.32 6.06 3 3 C3.9230348 6.69213922 4.10346196 9.48149954 4.0625 13.25 C4.05347656 14.32765625 4.04445312 15.4053125 4.03515625 16.515625 C4.02355469 17.33546875 4.01195312 18.1553125 4 19 C3.01 19.33 2.02 19.66 1 20 C-1.68159945 13.79880128 -2.14288655 6.42865964 0 0 Z " fill="#20322A" transform="translate(194,219)"/>
<path d="M0 0 C0.66 0.66 1.32 1.32 2 2 C2.66 1.67 3.32 1.34 4 1 C4 1.99 4 2.98 4 4 C8.10223585 5.01540112 8.10223585 5.01540112 12 4 C11.34 5.65 10.68 7.3 10 9 C4.57615894 8.39735099 4.57615894 8.39735099 2.1875 6.75 C0.69593338 4.55190182 0.35284675 2.61106596 0 0 Z " fill="#395A4C" transform="translate(240,361)"/>
<path d="M0 0 C5.78898419 -0.20674944 10.42932723 0.40837921 16 2 C16 2.66 16 3.32 16 4 C13.89551062 3.85890014 11.7914123 3.71195825 9.6875 3.5625 C8.51574219 3.48128906 7.34398437 3.40007812 6.13671875 3.31640625 C3 3 3 3 0 2 C0 1.34 0 0.68 0 0 Z " fill="#070B09" transform="translate(323,338)"/>
<path d="M0 0 C0.66 0 1.32 0 2 0 C2 2 2 2 0.5 3.625 C0.005 4.07875 -0.49 4.5325 -1 5 C1.64 4.67 4.28 4.34 7 4 C6.67 4.99 6.34 5.98 6 7 C2.62182575 7.84454356 0.32534757 8.10844919 -3 7 C-1.125 1.125 -1.125 1.125 0 0 Z " fill="#3E6051" transform="translate(221,362)"/>
<path d="M0 0 C0.99 1.32 1.98 2.64 3 4 C6.465 3.505 6.465 3.505 10 3 C9.67 4.32 9.34 5.64 9 7 C9.66 7 10.32 7 11 7 C10.67 7.66 10.34 8.32 10 9 C9.01 8.01 8.02 7.02 7 6 C6.34 6.66 5.68 7.32 5 8 C3.68 8 2.36 8 1 8 C-0.35439668 5.29120665 -0.06501451 2.99066732 0 0 Z " fill="#345245" transform="translate(195,362)"/>
<path d="M0 0 C3.3 0 6.6 0 10 0 C10 1.65 10 3.3 10 5 C9.01 5.495 9.01 5.495 8 6 C7.67 5.01 7.34 4.02 7 3 C6.01 3.33 5.02 3.66 4 4 C1.8125 3.5625 1.8125 3.5625 0 3 C0 2.01 0 1.02 0 0 Z " fill="#375649" transform="translate(174,366)"/>
<path d="M0 0 C0 0.66 0 1.32 0 2 C-4.29 2.99 -8.58 3.98 -13 5 C-12.67 4.01 -12.34 3.02 -12 2 C-7.9083139 0.19204568 -4.44280672 -0.21156222 0 0 Z " fill="#070B09" transform="translate(211,340)"/>
<path d="M0 0 C1.125 3.75 1.125 3.75 0 6 C-2.64 6 -5.28 6 -8 6 C-7.67 5.01 -7.34 4.02 -7 3 C-5.5459375 2.814375 -5.5459375 2.814375 -4.0625 2.625 C-2.5465625 2.315625 -2.5465625 2.315625 -1 2 C-0.67 1.34 -0.34 0.68 0 0 Z " fill="#335043" transform="translate(216,363)"/>
<path d="M0 0 C1.15941038 3.47823115 0.70820884 5.45895578 0 9 C-1.32 8.67 -2.64 8.34 -4 8 C-4 6.02 -4 4.04 -4 2 C-3.01 2 -2.02 2 -1 2 C-0.67 1.34 -0.34 0.68 0 0 Z " fill="#365548" transform="translate(173,361)"/>
<path d="M0 0 C1.32 0 2.64 0 4 0 C4 2.31 4 4.62 4 7 C2.68 6.67 1.36 6.34 0 6 C0 4.02 0 2.04 0 0 Z " fill="#0D1411" transform="translate(275,209)"/>
<path d="M0 0 C1.65 0 3.3 0 5 0 C5.25 5.625 5.25 5.625 3 9 C2.01 9 1.02 9 0 9 C0 8.34 0 7.68 0 7 C0.99 7 1.98 7 3 7 C3 5.68 3 4.36 3 3 C2.01 3 1.02 3 0 3 C0 2.01 0 1.02 0 0 Z " fill="#355346" transform="translate(288,366)"/>
<path d="M0 0 C0.33 0.66 0.66 1.32 1 2 C0.67 2.66 0.34 3.32 0 4 C0.66 4 1.32 4 2 4 C1.67 4.66 1.34 5.32 1 6 C-1.64 5.34 -4.28 4.68 -7 4 C-6.67 3.01 -6.34 2.02 -6 1 C-4.02 0.67 -2.04 0.34 0 0 Z " fill="#3B5C4E" transform="translate(303,365)"/>
<path d="M0 0 C0.625 1.8125 0.625 1.8125 1 4 C0.01 5.485 0.01 5.485 -1 7 C-2.32 7 -3.64 7 -5 7 C-5.33 5.68 -5.66 4.36 -6 3 C-3 2 -3 2 0 3 C0 2.01 0 1.02 0 0 Z " fill="#3C5D4F" transform="translate(237,363)"/>
<path d="M0 0 C0.78890625 0.12761719 1.5778125 0.25523437 2.390625 0.38671875 C3.18984375 0.50660156 3.9890625 0.62648438 4.8125 0.75 C5.41578125 0.85699219 6.0190625 0.96398437 6.640625 1.07421875 C5.650625 1.56921875 5.650625 1.56921875 4.640625 2.07421875 C4.640625 2.73421875 4.640625 3.39421875 4.640625 4.07421875 C1.010625 3.74421875 -2.619375 3.41421875 -6.359375 3.07421875 C-2.359375 0.07421875 -2.359375 0.07421875 0 0 Z " fill="#121C18" transform="translate(318.359375,335.92578125)"/>
<path d="M0 0 C0.99 0 1.98 0 3 0 C4.125 3.75 4.125 3.75 3 6 C1.68 5.67 0.36 5.34 -1 5 C-0.67 3.35 -0.34 1.7 0 0 Z " fill="#3F6253" transform="translate(270,365)"/>
<path d="M0 0 C1.53166168 4.08443115 0.63081652 7.79455657 0 12 C-2 10 -2 10 -2.265625 8.125 C-2.26046875 7.42375 -2.2553125 6.7225 -2.25 6 C-2.25515625 5.29875 -2.2603125 4.5975 -2.265625 3.875 C-2 2 -2 2 0 0 Z " fill="#010101" transform="translate(196,221)"/>
<path d="M0 0 C-0.33 1.65 -0.66 3.3 -1 5 C-1.61875 4.814375 -2.2375 4.62875 -2.875 4.4375 C-5.04160178 3.76313824 -5.04160178 3.76313824 -7 5 C-7 3.68 -7 2.36 -7 1 C-4.50935112 0.31292445 -2.62113708 0 0 0 Z " fill="#345245" transform="translate(332,365)"/>
<path d="M0 0 C2 3.75 2 3.75 2 6 C2.66 6 3.32 6 4 6 C3.67 6.66 3.34 7.32 3 8 C1.68 8 0.36 8 -1 8 C-1.625 5.6875 -1.625 5.6875 -2 3 C-1.34 2.01 -0.68 1.02 0 0 Z " fill="#3F6354" transform="translate(310,362)"/>
<path d="M0 0 C1.65 0 3.3 0 5 0 C5.33 1.32 5.66 2.64 6 4 C3.03 3.505 3.03 3.505 0 3 C0 2.01 0 1.02 0 0 Z " fill="#0F1714" transform="translate(273,158)"/>
<path d="M0 0 C-1.3125 1.5 -1.3125 1.5 -3 3 C-3.99 3 -4.98 3 -6 3 C-6 2.34 -6 1.68 -6 1 C-6.66 0.67 -7.32 0.34 -8 0 C-4.94736336 -0.98120464 -3.05263664 -0.98120464 0 0 Z " fill="#111B17" transform="translate(199,343)"/>
<path d="M0 0 C1.98 0 3.96 0 6 0 C6 0.99 6 1.98 6 3 C3 4 3 4 0 3 C0 2.01 0 1.02 0 0 Z " fill="#38574A" transform="translate(257,366)"/>
</svg>
